<mxfile host="app.diagrams.net" agent="Mozilla/5.0 (Windows NT 10.0; Win64; x64; rv:136.0) Gecko/20100101 Firefox/136.0" version="26.1.1">
  <diagram id="C5RBs43oDa-KdzZeNtuy" name="back-synchronization">
    <mxGraphModel dx="2490" dy="986" grid="1" gridSize="10" guides="1" tooltips="1" connect="1" arrows="1" fold="1" page="1" pageScale="1" pageWidth="827" pageHeight="1169" math="0" shadow="0">
      <root>
        <mxCell id="WIyWlLk6GJQsqaUBKTNV-0" />
        <mxCell id="WIyWlLk6GJQsqaUBKTNV-1" parent="WIyWlLk6GJQsqaUBKTNV-0" />
        <mxCell id="ZLNoTlKYlqc6iAuUh58v-76" value="" style="edgeStyle=orthogonalEdgeStyle;rounded=0;orthogonalLoop=1;jettySize=auto;html=1;" edge="1" parent="WIyWlLk6GJQsqaUBKTNV-1" source="ZLNoTlKYlqc6iAuUh58v-74" target="ZLNoTlKYlqc6iAuUh58v-75">
          <mxGeometry relative="1" as="geometry" />
        </mxCell>
        <mxCell id="ZLNoTlKYlqc6iAuUh58v-74" value="A user updates an incident" style="rounded=1;whiteSpace=wrap;html=1;" vertex="1" parent="WIyWlLk6GJQsqaUBKTNV-1">
          <mxGeometry x="40" y="80" width="120" height="60" as="geometry" />
        </mxCell>
        <mxCell id="ZLNoTlKYlqc6iAuUh58v-81" value="" style="edgeStyle=orthogonalEdgeStyle;rounded=0;orthogonalLoop=1;jettySize=auto;html=1;" edge="1" parent="WIyWlLk6GJQsqaUBKTNV-1" source="ZLNoTlKYlqc6iAuUh58v-75" target="ZLNoTlKYlqc6iAuUh58v-77">
          <mxGeometry relative="1" as="geometry" />
        </mxCell>
        <mxCell id="ZLNoTlKYlqc6iAuUh58v-75" value="Update alarmsdb via api" style="whiteSpace=wrap;html=1;rounded=1;" vertex="1" parent="WIyWlLk6GJQsqaUBKTNV-1">
          <mxGeometry x="40" y="180" width="120" height="60" as="geometry" />
        </mxCell>
        <mxCell id="ZLNoTlKYlqc6iAuUh58v-80" value="No" style="edgeStyle=orthogonalEdgeStyle;rounded=0;orthogonalLoop=1;jettySize=auto;html=1;" edge="1" parent="WIyWlLk6GJQsqaUBKTNV-1" source="ZLNoTlKYlqc6iAuUh58v-77" target="ZLNoTlKYlqc6iAuUh58v-79">
          <mxGeometry x="-0.3333" y="-10" relative="1" as="geometry">
            <mxPoint as="offset" />
          </mxGeometry>
        </mxCell>
        <mxCell id="ZLNoTlKYlqc6iAuUh58v-82" value="Yes" style="edgeStyle=orthogonalEdgeStyle;rounded=0;orthogonalLoop=1;jettySize=auto;html=1;" edge="1" parent="WIyWlLk6GJQsqaUBKTNV-1" source="ZLNoTlKYlqc6iAuUh58v-77" target="ZLNoTlKYlqc6iAuUh58v-78">
          <mxGeometry x="0.2" y="20" relative="1" as="geometry">
            <mxPoint as="offset" />
          </mxGeometry>
        </mxCell>
        <mxCell id="ZLNoTlKYlqc6iAuUh58v-77" value="Success?" style="rhombus;whiteSpace=wrap;html=1;" vertex="1" parent="WIyWlLk6GJQsqaUBKTNV-1">
          <mxGeometry x="60" y="270" width="80" height="80" as="geometry" />
        </mxCell>
        <mxCell id="ZLNoTlKYlqc6iAuUh58v-84" value="" style="edgeStyle=orthogonalEdgeStyle;rounded=0;orthogonalLoop=1;jettySize=auto;html=1;" edge="1" parent="WIyWlLk6GJQsqaUBKTNV-1" source="ZLNoTlKYlqc6iAuUh58v-78" target="ZLNoTlKYlqc6iAuUh58v-83">
          <mxGeometry relative="1" as="geometry" />
        </mxCell>
        <mxCell id="ZLNoTlKYlqc6iAuUh58v-78" value="Update Argus db" style="rounded=1;whiteSpace=wrap;html=1;" vertex="1" parent="WIyWlLk6GJQsqaUBKTNV-1">
          <mxGeometry x="40" y="380" width="120" height="60" as="geometry" />
        </mxCell>
        <mxCell id="ZLNoTlKYlqc6iAuUh58v-79" value="Abort, send error to user" style="rounded=1;whiteSpace=wrap;html=1;" vertex="1" parent="WIyWlLk6GJQsqaUBKTNV-1">
          <mxGeometry x="200" y="280" width="120" height="60" as="geometry" />
        </mxCell>
        <mxCell id="ZLNoTlKYlqc6iAuUh58v-83" value="Send ok to user" style="rounded=1;whiteSpace=wrap;html=1;" vertex="1" parent="WIyWlLk6GJQsqaUBKTNV-1">
          <mxGeometry x="40" y="470" width="120" height="60" as="geometry" />
        </mxCell>
      </root>
    </mxGraphModel>
  </diagram>
</mxfile>
